<svg xmlns="http://www.w3.org/2000/svg" xmlns:xlink="http://www.w3.org/1999/xlink" version="1.0" x="0" y="0" width="2400" height="789.2056278589381" viewBox="44.29009719848633 83.66209884643554 251.41980560302736 82.6758023071289" preserveAspectRatio="xMidYMid meet" color-interpolation-filters="sRGB"><g><defs><linearGradient id="92" x1="0%" y1="0%" x2="100%" y2="0%"><stop offset="0%" stop-color="#fa71cd"></stop> <stop offset="100%" stop-color="#9b59b6"></stop></linearGradient><linearGradient id="93" x1="0%" y1="0%" x2="100%" y2="0%"><stop offset="0%" stop-color="#f9d423"></stop> <stop offset="100%" stop-color="#f83600"></stop></linearGradient><linearGradient id="94" x1="0%" y1="0%" x2="100%" y2="0%"><stop offset="0%" stop-color="#0064d2"></stop> <stop offset="100%" stop-color="#1cb0f6"></stop></linearGradient><linearGradient id="95" x1="0%" y1="0%" x2="100%" y2="0%"><stop offset="0%" stop-color="#f00978"></stop> <stop offset="100%" stop-color="#3f51b1"></stop></linearGradient><linearGradient id="96" x1="0%" y1="0%" x2="100%" y2="0%"><stop offset="0%" stop-color="#7873f5"></stop> <stop offset="100%" stop-color="#ec77ab"></stop></linearGradient><linearGradient id="97" x1="0%" y1="0%" x2="100%" y2="0%"><stop offset="0%" stop-color="#f9d423"></stop> <stop offset="100%" stop-color="#e14fad"></stop></linearGradient><linearGradient id="98" x1="0%" y1="0%" x2="100%" y2="0%"><stop offset="0%" stop-color="#009efd"></stop> <stop offset="100%" stop-color="#2af598"></stop></linearGradient><linearGradient id="99" x1="0%" y1="0%" x2="100%" y2="0%"><stop offset="0%" stop-color="#ffcc00"></stop> <stop offset="100%" stop-color="#00b140"></stop></linearGradient><linearGradient id="100" x1="0%" y1="0%" x2="100%" y2="0%"><stop offset="0%" stop-color="#d51007"></stop> <stop offset="100%" stop-color="#ff8177"></stop></linearGradient><linearGradient id="102" x1="0%" y1="0%" x2="100%" y2="0%"><stop offset="0%" stop-color="#a2b6df"></stop> <stop offset="100%" stop-color="#0c3483"></stop></linearGradient><linearGradient id="103" x1="0%" y1="0%" x2="100%" y2="0%"><stop offset="0%" stop-color="#7ac5d8"></stop> <stop offset="100%" stop-color="#eea2a2"></stop></linearGradient><linearGradient id="104" x1="0%" y1="0%" x2="100%" y2="0%"><stop offset="0%" stop-color="#00ecbc"></stop> <stop offset="100%" stop-color="#007adf"></stop></linearGradient><linearGradient id="105" x1="0%" y1="0%" x2="100%" y2="0%"><stop offset="0%" stop-color="#b88746"></stop> <stop offset="100%" stop-color="#fdf5a6"></stop></linearGradient></defs><g fill="#be3e09" class="pmspacesvg" transform="translate(46.75499725341797,86.12699890136719)"> <g><rect height="10" width="10" x="0" y="67.74600219726562"></rect> <rect height="10" width="10" x="236.49000549316406" y="0"></rect> <g fill-opacity="1" mask="url(#55fb1ae5-c633-47e8-bcb1-991302063ac9)"><g><rect stroke-width="2" class="i-icon-bg" x="0" y="0" width="246.49000549316406" height="77.74600219726562" rx="10" ry="10"></rect> </g> <g transform="translate(10,10)"><g fill-rule="" class="tp-name" fill="#feefcf" fill-opacity="1" transform="translate(0,0)"><g transform="scale(1)"><g><path d="M26.05 0L17.68 0 11.03-23.42 10.83-23.42Q11.3-17.44 11.3-14.12L11.3-14.12 11.3 0 3.51 0 3.51-32.52 15.21-32.52 22-9.43 22.18-9.43 28.83-32.52 40.55-32.52 40.55 0 32.48 0 32.48-14.26Q32.48-15.37 32.51-16.73 32.54-18.08 32.81-23.38L32.81-23.38 32.61-23.38 26.05 0ZM53.92-0.36L44-25.2 53.16-25.2 57.43-10.74Q57.74-9.61 57.86-8.01L57.86-8.01 58.03-8.01Q58.21-9.54 58.57-10.7L58.57-10.7 62.95-25.2 71.82-25.2 61.86 1.6Q59.95 6.72 57.16 8.83 54.36 10.94 49.87 10.94L49.87 10.94Q48.14 10.94 46.31 10.57L46.31 10.57 46.31 3.74Q47.49 4 49 4L49 4Q50.16 4 51.03 3.56 51.89 3.11 52.54 2.3 53.18 1.49 53.92-0.36L53.92-0.36ZM104.9 0L95.29 0 93.69-6.09 83.12-6.09 81.48 0 71.82 0 82.44-32.65 94.16-32.65 104.9 0ZM84.95-13.3L91.87-13.3 90.47-18.64Q89.98-20.42 89.28-23.24 88.57-26.07 88.35-27.29L88.35-27.29Q88.15-26.16 87.56-23.56 86.97-20.95 84.95-13.3L84.95-13.3ZM123.03 0.44L123.03 0.44Q121.12 0.44 119.6-0.19 118.09-0.82 116.6-2.47L116.6-2.47 116.2-2.47Q116.6 0.18 116.6 0.82L116.6 0.82 116.6 10.94 107.9 10.94 107.9-25.2 114.98-25.2 116.2-22 116.6-22Q119.03-25.65 123.3-25.65L123.3-25.65Q127.48-25.65 129.86-22.18 132.24-18.71 132.24-12.66L132.24-12.66Q132.24-6.56 129.76-3.06 127.28 0.44 123.03 0.44ZM120.12-18.82L120.12-18.82Q118.2-18.82 117.44-17.45 116.67-16.08 116.6-13.39L116.6-13.39 116.6-12.7Q116.6-9.45 117.47-8.01 118.34-6.56 120.21-6.56L120.21-6.56Q121.87-6.56 122.63-8 123.39-9.43 123.39-12.75L123.39-12.75Q123.39-15.99 122.63-17.41 121.87-18.82 120.12-18.82ZM152.32 0.44L152.32 0.44Q150.41 0.44 148.9-0.19 147.39-0.82 145.9-2.47L145.9-2.47 145.5-2.47Q145.9 0.18 145.9 0.82L145.9 0.82 145.9 10.94 137.2 10.94 137.2-25.2 144.27-25.2 145.5-22 145.9-22Q148.32-25.65 152.59-25.65L152.59-25.65Q156.77-25.65 159.15-22.18 161.53-18.71 161.53-12.66L161.53-12.66Q161.53-6.56 159.05-3.06 156.57 0.44 152.32 0.44ZM149.41-18.82L149.41-18.82Q147.5-18.82 146.73-17.45 145.96-16.08 145.9-13.39L145.9-13.39 145.9-12.7Q145.9-9.45 146.76-8.01 147.63-6.56 149.5-6.56L149.5-6.56Q151.17-6.56 151.92-8 152.68-9.43 152.68-12.75L152.68-12.75Q152.68-15.99 151.92-17.41 151.17-18.82 149.41-18.82ZM194.61-16.95L194.61-16.95Q194.61-8.81 190.13-4.4 185.65 0 177.53 0L177.53 0 167.01 0 167.01-32.52 178.26-32.52Q186.09-32.52 190.35-28.52 194.61-24.51 194.61-16.95ZM185.49-16.64L185.49-16.64Q185.49-21.11 183.72-23.27 181.95-25.42 178.35-25.42L178.35-25.42 175.79-25.42 175.79-7.21 177.75-7.21Q181.75-7.21 183.62-9.53 185.49-11.86 185.49-16.64ZM230 0L220.39 0 218.79-6.09 208.22-6.09 206.58 0 196.92 0 207.53-32.65 219.26-32.65 230 0ZM210.05-13.3L216.97-13.3 215.56-18.64Q215.07-20.42 214.37-23.24 213.67-26.07 213.45-27.29L213.45-27.29Q213.25-26.16 212.66-23.56 212.07-20.95 210.05-13.3L210.05-13.3Z" transform="translate(-3.509999990463257, 32.650001525878906)"></path></g> </g></g> <g fill-rule="" class="tp-slogan" fill="#feefcf" fill-opacity="1" transform="translate(5.000007629394531,49.590003967285156)"><rect x="0" height="1" y="3.580000400543213" width="22.31000518798828"></rect> <rect height="1" y="3.580000400543213" width="22.31000518798828" x="194.18000030517578"></rect> <g transform="translate(25.31000518798828,0)"><g transform="scale(1)"><path d="M1.10-1.72L0.50-1.02C0.85-0.66 1.26-0.38 1.73-0.17C2.20 0.04 2.71 0.14 3.26 0.14C3.68 0.14 4.05 0.09 4.38-0.03C4.71-0.15 4.99-0.31 5.22-0.51C5.45-0.71 5.63-0.95 5.75-1.22C5.88-1.50 5.94-1.79 5.94-2.10C5.94-2.39 5.90-2.64 5.81-2.86C5.73-3.08 5.62-3.27 5.47-3.44C5.33-3.60 5.16-3.75 4.96-3.87C4.76-3.99 4.54-4.10 4.32-4.20L3.20-4.68C3.04-4.74 2.89-4.81 2.74-4.89C2.58-4.97 2.44-5.05 2.32-5.15C2.19-5.25 2.09-5.37 2.01-5.50C1.93-5.63 1.90-5.80 1.90-5.99C1.90-6.35 2.03-6.63 2.30-6.83C2.57-7.04 2.92-7.14 3.36-7.14C3.73-7.14 4.06-7.07 4.35-6.94C4.64-6.81 4.91-6.63 5.15-6.40L5.69-7.04C5.41-7.33 5.07-7.57 4.67-7.75C4.27-7.93 3.83-8.02 3.36-8.02C3-8.02 2.67-7.96 2.37-7.86C2.07-7.76 1.81-7.61 1.59-7.42C1.37-7.23 1.20-7.01 1.07-6.76C0.95-6.50 0.89-6.22 0.89-5.93C0.89-5.64 0.94-5.39 1.03-5.17C1.13-4.95 1.25-4.76 1.40-4.60C1.56-4.44 1.73-4.30 1.92-4.19C2.11-4.08 2.30-3.98 2.48-3.90L3.61-3.41C3.80-3.32 3.97-3.24 4.13-3.16C4.29-3.08 4.43-2.99 4.54-2.89C4.66-2.79 4.75-2.67 4.82-2.53C4.89-2.39 4.92-2.22 4.92-2.02C4.92-1.63 4.78-1.32 4.49-1.09C4.20-0.85 3.80-0.73 3.28-0.73C2.87-0.73 2.47-0.82 2.09-1.00C1.71-1.18 1.38-1.42 1.10-1.72ZM7.49-7.87L7.49 0L8.48 0L8.48-7.87ZM10.64-7.87L10.64 0L11.57 0L11.57-4.33C11.57-4.68 11.55-5.07 11.52-5.50C11.49-5.92 11.46-6.31 11.44-6.66L11.48-6.66L12.11-4.91L13.63-0.79L14.20-0.79L15.71-4.91L16.34-6.66L16.39-6.66C16.36-6.31 16.33-5.92 16.30-5.50C16.27-5.07 16.26-4.68 16.26-4.33L16.26 0L17.21 0L17.21-7.87L16.03-7.87L14.52-3.65L13.97-2.04L13.92-2.04L13.34-3.65L11.82-7.87ZM19.37-7.87L19.37 0L20.36 0L20.36-3.12L21.78-3.12C22.21-3.12 22.61-3.17 22.96-3.27C23.32-3.37 23.62-3.52 23.88-3.72C24.14-3.92 24.33-4.17 24.47-4.48C24.61-4.78 24.68-5.14 24.68-5.56C24.68-5.99 24.61-6.35 24.47-6.65C24.33-6.94 24.14-7.18 23.89-7.36C23.63-7.54 23.33-7.67 22.97-7.75C22.61-7.83 22.21-7.87 21.78-7.87ZM21.66-3.94L20.36-3.94L20.36-7.07L21.66-7.07C22.34-7.07 22.85-6.96 23.18-6.74C23.52-6.52 23.69-6.12 23.69-5.56C23.69-5.00 23.52-4.59 23.19-4.33C22.86-4.07 22.35-3.94 21.66-3.94ZM26.28-7.87L26.28 0L30.72 0L30.72-0.85L27.28-0.85L27.28-7.87ZM32.11-7.87L32.11 0L36.77 0L36.77-0.85L33.11-0.85L33.11-3.71L36.10-3.71L36.10-4.56L33.11-4.56L33.11-7.03L36.65-7.03L36.65-7.87ZM40.86-7.87L40.86 0L45.52 0L45.52-0.85L41.86-0.85L41.86-3.71L44.84-3.71L44.84-4.56L41.86-4.56L41.86-7.03L45.40-7.03L45.40-7.87ZM46.73-3.94C46.73-3.30 46.81-2.72 46.99-2.21C47.16-1.71 47.40-1.28 47.71-0.93C48.01-0.58 48.38-0.32 48.80-0.13C49.22 0.05 49.68 0.14 50.17 0.14C50.68 0.14 51.12 0.04 51.52-0.16C51.91-0.36 52.26-0.64 52.57-1.00L52.01-1.61C51.75-1.33 51.48-1.11 51.20-0.96C50.91-0.81 50.58-0.73 50.20-0.73C49.82-0.73 49.48-0.81 49.18-0.96C48.88-1.11 48.63-1.33 48.42-1.61C48.21-1.89 48.05-2.23 47.93-2.62C47.82-3.02 47.76-3.46 47.76-3.96C47.76-4.45 47.82-4.89 47.94-5.28C48.06-5.67 48.23-6.01 48.44-6.28C48.66-6.56 48.92-6.77 49.22-6.92C49.53-7.07 49.87-7.14 50.24-7.14C50.58-7.14 50.87-7.07 51.13-6.94C51.38-6.81 51.61-6.63 51.82-6.41L52.38-7.04C52.15-7.30 51.85-7.53 51.49-7.72C51.13-7.92 50.71-8.02 50.23-8.02C49.73-8.02 49.26-7.92 48.83-7.73C48.41-7.55 48.04-7.28 47.72-6.92C47.41-6.57 47.17-6.14 46.99-5.64C46.82-5.14 46.73-4.57 46.73-3.94ZM56.59 0.14C57.09 0.14 57.54 0.05 57.95-0.14C58.37-0.34 58.72-0.61 59.02-0.97C59.32-1.32 59.55-1.75 59.72-2.26C59.88-2.77 59.96-3.34 59.96-3.97C59.96-4.60 59.88-5.16 59.72-5.66C59.55-6.16 59.32-6.58 59.02-6.93C58.72-7.28 58.37-7.55 57.95-7.73C57.54-7.92 57.09-8.02 56.59-8.02C56.10-8.02 55.64-7.92 55.23-7.74C54.82-7.56 54.46-7.29 54.17-6.94C53.87-6.59 53.64-6.17 53.48-5.67C53.31-5.17 53.23-4.60 53.23-3.97C53.23-3.34 53.31-2.77 53.48-2.26C53.64-1.75 53.87-1.32 54.17-0.97C54.46-0.61 54.82-0.34 55.23-0.14C55.64 0.05 56.10 0.14 56.59 0.14ZM56.59-0.73C56.24-0.73 55.92-0.81 55.64-0.96C55.35-1.11 55.11-1.33 54.91-1.61C54.70-1.90 54.54-2.24 54.43-2.63C54.32-3.03 54.26-3.48 54.26-3.97C54.26-4.46 54.32-4.90 54.43-5.29C54.54-5.68 54.70-6.02 54.91-6.29C55.11-6.56 55.35-6.77 55.64-6.92C55.92-7.07 56.24-7.14 56.59-7.14C56.94-7.14 57.26-7.07 57.55-6.92C57.83-6.77 58.07-6.56 58.28-6.29C58.48-6.02 58.64-5.68 58.75-5.29C58.86-4.90 58.92-4.46 58.92-3.97C58.92-3.48 58.86-3.03 58.75-2.63C58.64-2.24 58.48-1.90 58.28-1.61C58.07-1.33 57.83-1.11 57.55-0.96C57.26-0.81 56.94-0.73 56.59-0.73ZM61.66-7.87L61.66 0L62.58 0L62.58-4.33C62.58-4.68 62.56-5.07 62.53-5.50C62.50-5.92 62.47-6.31 62.45-6.66L62.50-6.66L63.12-4.91L64.64-0.79L65.21-0.79L66.72-4.91L67.36-6.66L67.40-6.66C67.37-6.31 67.34-5.92 67.31-5.50C67.29-5.07 67.27-4.68 67.27-4.33L67.27 0L68.22 0L68.22-7.87L67.04-7.87L65.53-3.65L64.98-2.04L64.93-2.04L64.36-3.65L62.83-7.87ZM70.38-7.87L70.38 0L71.30 0L71.30-4.33C71.30-4.68 71.29-5.07 71.26-5.50C71.22-5.92 71.20-6.31 71.17-6.66L71.22-6.66L71.84-4.91L73.37-0.79L73.93-0.79L75.44-4.91L76.08-6.66L76.13-6.66C76.10-6.31 76.07-5.92 76.04-5.50C76.01-5.07 76.00-4.68 76.00-4.33L76.00 0L76.94 0L76.94-7.87L75.77-7.87L74.26-3.65L73.70-2.04L73.66-2.04L73.08-3.65L71.56-7.87ZM79.10-7.87L79.10 0L83.76 0L83.76-0.85L80.10-0.85L80.10-3.71L83.09-3.71L83.09-4.56L80.10-4.56L80.10-7.03L83.64-7.03L83.64-7.87ZM86.42-4.14L86.42-7.07L87.74-7.07C88.36-7.07 88.83-6.96 89.16-6.76C89.49-6.55 89.65-6.18 89.65-5.66C89.65-5.15 89.49-4.77 89.16-4.52C88.83-4.27 88.36-4.14 87.74-4.14ZM89.75 0L90.88 0L88.88-3.43C89.42-3.57 89.85-3.82 90.17-4.19C90.49-4.56 90.65-5.05 90.65-5.66C90.65-6.07 90.58-6.42 90.44-6.70C90.31-6.98 90.12-7.20 89.87-7.38C89.63-7.56 89.34-7.68 89.00-7.76C88.66-7.83 88.29-7.87 87.89-7.87L85.43-7.87L85.43 0L86.42 0L86.42-3.32L87.85-3.32ZM91.94-3.94C91.94-3.30 92.03-2.72 92.20-2.21C92.37-1.71 92.61-1.28 92.92-0.93C93.23-0.58 93.59-0.32 94.01-0.13C94.43 0.05 94.89 0.14 95.39 0.14C95.89 0.14 96.34 0.04 96.73-0.16C97.12-0.36 97.48-0.64 97.79-1.00L97.22-1.61C96.97-1.33 96.70-1.11 96.41-0.96C96.13-0.81 95.80-0.73 95.41-0.73C95.04-0.73 94.70-0.81 94.40-0.96C94.10-1.11 93.84-1.33 93.64-1.61C93.43-1.89 93.27-2.23 93.15-2.62C93.03-3.02 92.98-3.46 92.98-3.96C92.98-4.45 93.04-4.89 93.16-5.28C93.28-5.67 93.44-6.01 93.66-6.28C93.88-6.56 94.14-6.77 94.44-6.92C94.74-7.07 95.08-7.14 95.46-7.14C95.80-7.14 96.09-7.07 96.34-6.94C96.59-6.81 96.82-6.63 97.03-6.41L97.60-7.04C97.36-7.30 97.07-7.53 96.71-7.72C96.35-7.92 95.93-8.02 95.45-8.02C94.94-8.02 94.48-7.92 94.05-7.73C93.62-7.55 93.25-7.28 92.94-6.92C92.63-6.57 92.38-6.14 92.21-5.64C92.03-5.14 91.94-4.57 91.94-3.94ZM99.25-7.87L99.25 0L103.91 0L103.91-0.85L100.25-0.85L100.25-3.71L103.24-3.71L103.24-4.56L100.25-4.56L100.25-7.03L103.79-7.03L103.79-7.87ZM108.00-7.87L108.00 0L108.92 0L108.92-4.33C108.92-4.68 108.91-5.07 108.88-5.50C108.84-5.92 108.82-6.31 108.79-6.66L108.84-6.66L109.46-4.91L110.99-0.79L111.55-0.79L113.06-4.91L113.70-6.66L113.75-6.66C113.72-6.31 113.69-5.92 113.66-5.50C113.63-5.07 113.62-4.68 113.62-4.33L113.62 0L114.56 0L114.56-7.87L113.39-7.87L111.88-3.65L111.32-2.04L111.28-2.04L110.70-3.65L109.18-7.87ZM120.07-3.20L117.71-3.20L118.08-4.40C118.22-4.84 118.36-5.28 118.49-5.72C118.62-6.15 118.74-6.60 118.86-7.06L118.91-7.06C119.04-6.60 119.16-6.15 119.29-5.72C119.42-5.28 119.56-4.84 119.70-4.40ZM120.32-2.40L121.07 0L122.14 0L119.47-7.87L118.34-7.87L115.68 0L116.70 0L117.46-2.40ZM124.25-4.14L124.25-7.07L125.57-7.07C126.18-7.07 126.66-6.96 126.98-6.76C127.31-6.55 127.48-6.18 127.48-5.66C127.48-5.15 127.31-4.77 126.98-4.52C126.66-4.27 126.18-4.14 125.57-4.14ZM127.57 0L128.70 0L126.71-3.43C127.24-3.57 127.67-3.82 127.99-4.19C128.31-4.56 128.47-5.05 128.47-5.66C128.47-6.07 128.40-6.42 128.27-6.70C128.13-6.98 127.94-7.20 127.70-7.38C127.45-7.56 127.16-7.68 126.82-7.76C126.48-7.83 126.11-7.87 125.71-7.87L123.25-7.87L123.25 0L124.25 0L124.25-3.32L125.68-3.32ZM130.22-7.87L130.22 0L131.22 0L131.22-2.50L132.58-4.09L134.93 0L136.04 0L133.20-4.87L135.66-7.87L134.53-7.87L131.26-3.92L131.22-3.92L131.22-7.87ZM137.17-7.87L137.17 0L141.83 0L141.83-0.85L138.17-0.85L138.17-3.71L141.16-3.71L141.16-4.56L138.17-4.56L138.17-7.03L141.71-7.03L141.71-7.87ZM145.13-7.03L145.13 0L146.14 0L146.14-7.03L148.51-7.03L148.51-7.87L142.75-7.87L142.75-7.03ZM149.93-7.87L149.93 0L150.92 0L150.92-7.87ZM153.08-7.87L153.08 0L154.03 0L154.03-4.12C154.03-4.53 154.02-4.95 153.99-5.36C153.96-5.77 153.93-6.18 153.90-6.58L153.95-6.58L154.80-4.96L157.66 0L158.69 0L158.69-7.87L157.74-7.87L157.74-3.80C157.74-3.39 157.75-2.97 157.78-2.54C157.81-2.11 157.84-1.70 157.86-1.30L157.81-1.30L156.96-2.93L154.12-7.87ZM160.39-3.94C160.39-3.30 160.48-2.72 160.66-2.21C160.83-1.71 161.08-1.28 161.39-0.93C161.70-0.58 162.07-0.32 162.50-0.13C162.94 0.05 163.41 0.14 163.93 0.14C164.46 0.14 164.93 0.06 165.35-0.11C165.77-0.29 166.11-0.50 166.37-0.77L166.37-4.08L163.79-4.08L163.79-3.25L165.46-3.25L165.46-1.20C165.30-1.06 165.09-0.94 164.84-0.86C164.59-0.77 164.32-0.73 164.04-0.73C163.62-0.73 163.24-0.81 162.92-0.96C162.59-1.11 162.32-1.33 162.10-1.61C161.88-1.89 161.71-2.23 161.60-2.62C161.48-3.02 161.42-3.46 161.42-3.96C161.42-4.45 161.49-4.89 161.61-5.28C161.73-5.67 161.91-6.01 162.13-6.28C162.36-6.56 162.63-6.77 162.95-6.92C163.27-7.07 163.63-7.14 164.03-7.14C164.43-7.14 164.76-7.07 165.02-6.93C165.28-6.79 165.51-6.62 165.71-6.41L166.27-7.04C166.04-7.28 165.74-7.51 165.38-7.71C165.01-7.91 164.56-8.02 164.02-8.02C163.49-8.02 163.00-7.92 162.56-7.73C162.12-7.55 161.74-7.28 161.42-6.92C161.09-6.57 160.84-6.14 160.66-5.64C160.48-5.14 160.39-4.57 160.39-3.94Z" transform="translate(-0.504, 8.016)"></path></g></g></g></g></g> </g></g><mask id="55fb1ae5-c633-47e8-bcb1-991302063ac9"><g fill="white"><rect stroke-width="2" class="i-icon-bg" x="0" y="0" width="246.49000549316406" height="77.74600219726562" rx="10" ry="10"></rect> </g> <g transform="translate(10,10)" fill="black"><g fill-rule="" class="tp-name" fill-opacity="1" transform="translate(0,0)"><g transform="scale(1)"><g><path d="M26.05 0L17.68 0 11.03-23.42 10.83-23.42Q11.3-17.44 11.3-14.12L11.3-14.12 11.3 0 3.51 0 3.51-32.52 15.21-32.52 22-9.43 22.18-9.43 28.83-32.52 40.55-32.52 40.55 0 32.48 0 32.48-14.26Q32.48-15.37 32.51-16.73 32.54-18.08 32.81-23.38L32.81-23.38 32.61-23.38 26.05 0ZM53.92-0.36L44-25.2 53.16-25.2 57.43-10.74Q57.74-9.61 57.86-8.01L57.86-8.01 58.03-8.01Q58.21-9.54 58.57-10.7L58.57-10.7 62.95-25.2 71.82-25.2 61.86 1.6Q59.95 6.72 57.16 8.83 54.36 10.94 49.87 10.94L49.87 10.94Q48.14 10.94 46.31 10.57L46.31 10.57 46.31 3.74Q47.49 4 49 4L49 4Q50.16 4 51.03 3.56 51.89 3.11 52.54 2.3 53.18 1.49 53.92-0.36L53.92-0.36ZM104.9 0L95.29 0 93.69-6.09 83.12-6.09 81.48 0 71.82 0 82.44-32.65 94.16-32.65 104.9 0ZM84.95-13.3L91.87-13.3 90.47-18.64Q89.98-20.42 89.28-23.24 88.57-26.07 88.35-27.29L88.35-27.29Q88.15-26.16 87.56-23.56 86.97-20.95 84.95-13.3L84.95-13.3ZM123.03 0.44L123.03 0.44Q121.12 0.44 119.6-0.19 118.09-0.82 116.6-2.47L116.6-2.47 116.2-2.47Q116.6 0.18 116.6 0.82L116.6 0.82 116.6 10.94 107.9 10.94 107.9-25.2 114.98-25.2 116.2-22 116.6-22Q119.03-25.65 123.3-25.65L123.3-25.65Q127.48-25.65 129.86-22.18 132.24-18.71 132.24-12.66L132.24-12.66Q132.24-6.56 129.76-3.06 127.28 0.44 123.03 0.44ZM120.12-18.82L120.12-18.82Q118.2-18.82 117.44-17.45 116.67-16.08 116.6-13.39L116.6-13.39 116.6-12.7Q116.6-9.45 117.47-8.01 118.34-6.56 120.21-6.56L120.21-6.56Q121.87-6.56 122.63-8 123.39-9.43 123.39-12.75L123.39-12.75Q123.39-15.99 122.63-17.41 121.87-18.82 120.12-18.82ZM152.32 0.44L152.32 0.44Q150.41 0.44 148.9-0.19 147.39-0.82 145.9-2.47L145.9-2.47 145.5-2.47Q145.9 0.18 145.9 0.82L145.9 0.82 145.9 10.94 137.2 10.94 137.2-25.2 144.27-25.2 145.5-22 145.9-22Q148.32-25.65 152.59-25.65L152.59-25.65Q156.77-25.65 159.15-22.18 161.53-18.71 161.53-12.66L161.53-12.66Q161.53-6.56 159.05-3.06 156.57 0.44 152.32 0.44ZM149.41-18.82L149.41-18.82Q147.5-18.82 146.73-17.45 145.96-16.08 145.9-13.39L145.9-13.39 145.9-12.7Q145.9-9.45 146.76-8.01 147.63-6.56 149.5-6.56L149.5-6.56Q151.17-6.56 151.92-8 152.68-9.43 152.68-12.75L152.68-12.75Q152.68-15.99 151.92-17.41 151.17-18.82 149.41-18.82ZM194.61-16.95L194.61-16.95Q194.61-8.81 190.13-4.4 185.65 0 177.53 0L177.53 0 167.01 0 167.01-32.52 178.26-32.52Q186.09-32.52 190.35-28.52 194.61-24.51 194.61-16.95ZM185.49-16.64L185.49-16.64Q185.49-21.11 183.72-23.27 181.95-25.42 178.35-25.42L178.35-25.42 175.79-25.42 175.79-7.21 177.75-7.21Q181.75-7.21 183.62-9.53 185.49-11.86 185.49-16.64ZM230 0L220.39 0 218.79-6.09 208.22-6.09 206.58 0 196.92 0 207.53-32.65 219.26-32.65 230 0ZM210.05-13.3L216.97-13.3 215.56-18.64Q215.07-20.42 214.37-23.24 213.67-26.07 213.45-27.29L213.45-27.29Q213.25-26.16 212.66-23.56 212.07-20.95 210.05-13.3L210.05-13.3Z" transform="translate(-3.509999990463257, 32.650001525878906)"></path></g> </g></g> <g fill-rule="" class="tp-slogan" fill-opacity="1" transform="translate(5.000007629394531,49.590003967285156)"><rect x="0" height="1" y="3.580000400543213" width="22.31000518798828"></rect> <rect height="1" y="3.580000400543213" width="22.31000518798828" x="194.18000030517578"></rect> <g transform="translate(25.31000518798828,0)"><g transform="scale(1)"><path d="M1.10-1.72L0.50-1.02C0.85-0.66 1.26-0.38 1.73-0.17C2.20 0.04 2.71 0.14 3.26 0.14C3.68 0.14 4.05 0.09 4.38-0.03C4.71-0.15 4.99-0.31 5.22-0.51C5.45-0.71 5.63-0.95 5.75-1.22C5.88-1.50 5.94-1.79 5.94-2.10C5.94-2.39 5.90-2.64 5.81-2.86C5.73-3.08 5.62-3.27 5.47-3.44C5.33-3.60 5.16-3.75 4.96-3.87C4.76-3.99 4.54-4.10 4.32-4.20L3.20-4.68C3.04-4.74 2.89-4.81 2.74-4.89C2.58-4.97 2.44-5.05 2.32-5.15C2.19-5.25 2.09-5.37 2.01-5.50C1.93-5.63 1.90-5.80 1.90-5.99C1.90-6.35 2.03-6.63 2.30-6.83C2.57-7.04 2.92-7.14 3.36-7.14C3.73-7.14 4.06-7.07 4.35-6.94C4.64-6.81 4.91-6.63 5.15-6.40L5.69-7.04C5.41-7.33 5.07-7.57 4.67-7.75C4.27-7.93 3.83-8.02 3.36-8.02C3-8.02 2.67-7.96 2.37-7.86C2.07-7.76 1.81-7.61 1.59-7.42C1.37-7.23 1.20-7.01 1.07-6.76C0.95-6.50 0.89-6.22 0.89-5.93C0.89-5.64 0.94-5.39 1.03-5.17C1.13-4.95 1.25-4.76 1.40-4.60C1.56-4.44 1.73-4.30 1.92-4.19C2.11-4.08 2.30-3.98 2.48-3.90L3.61-3.41C3.80-3.32 3.97-3.24 4.13-3.16C4.29-3.08 4.43-2.99 4.54-2.89C4.66-2.79 4.75-2.67 4.82-2.53C4.89-2.39 4.92-2.22 4.92-2.02C4.92-1.63 4.78-1.32 4.49-1.09C4.20-0.85 3.80-0.73 3.28-0.73C2.87-0.73 2.47-0.82 2.09-1.00C1.71-1.18 1.38-1.42 1.10-1.72ZM7.49-7.87L7.49 0L8.48 0L8.48-7.87ZM10.64-7.87L10.64 0L11.57 0L11.57-4.33C11.57-4.68 11.55-5.07 11.52-5.50C11.49-5.92 11.46-6.31 11.44-6.66L11.48-6.66L12.11-4.91L13.63-0.79L14.20-0.79L15.71-4.91L16.34-6.66L16.39-6.66C16.36-6.31 16.33-5.92 16.30-5.50C16.27-5.07 16.26-4.68 16.26-4.33L16.26 0L17.21 0L17.21-7.87L16.03-7.87L14.52-3.65L13.97-2.04L13.92-2.04L13.34-3.65L11.82-7.87ZM19.37-7.87L19.37 0L20.36 0L20.36-3.12L21.78-3.12C22.21-3.12 22.61-3.17 22.96-3.27C23.32-3.37 23.62-3.52 23.88-3.72C24.14-3.92 24.33-4.17 24.47-4.48C24.61-4.78 24.68-5.14 24.68-5.56C24.68-5.99 24.61-6.35 24.47-6.65C24.33-6.94 24.14-7.18 23.89-7.36C23.63-7.54 23.33-7.67 22.97-7.75C22.61-7.83 22.21-7.87 21.78-7.87ZM21.66-3.94L20.36-3.94L20.36-7.07L21.66-7.07C22.34-7.07 22.85-6.96 23.18-6.74C23.52-6.52 23.69-6.12 23.69-5.56C23.69-5.00 23.52-4.59 23.19-4.33C22.86-4.07 22.35-3.94 21.66-3.94ZM26.28-7.87L26.28 0L30.72 0L30.72-0.85L27.28-0.85L27.28-7.87ZM32.11-7.87L32.11 0L36.77 0L36.77-0.85L33.11-0.85L33.11-3.71L36.10-3.71L36.10-4.56L33.11-4.56L33.11-7.03L36.65-7.03L36.65-7.87ZM40.86-7.87L40.86 0L45.52 0L45.52-0.85L41.86-0.85L41.86-3.71L44.84-3.71L44.84-4.56L41.86-4.56L41.86-7.03L45.40-7.03L45.40-7.87ZM46.73-3.94C46.73-3.30 46.81-2.72 46.99-2.21C47.16-1.71 47.40-1.28 47.71-0.93C48.01-0.58 48.38-0.32 48.80-0.13C49.22 0.05 49.68 0.14 50.17 0.14C50.68 0.14 51.12 0.04 51.52-0.16C51.91-0.36 52.26-0.64 52.57-1.00L52.01-1.61C51.75-1.33 51.48-1.11 51.20-0.96C50.91-0.81 50.58-0.73 50.20-0.73C49.82-0.73 49.48-0.81 49.18-0.96C48.88-1.11 48.63-1.33 48.42-1.61C48.21-1.89 48.05-2.23 47.93-2.62C47.82-3.02 47.76-3.46 47.76-3.96C47.76-4.45 47.82-4.89 47.94-5.28C48.06-5.67 48.23-6.01 48.44-6.28C48.66-6.56 48.92-6.77 49.22-6.92C49.53-7.07 49.87-7.14 50.24-7.14C50.58-7.14 50.87-7.07 51.13-6.94C51.38-6.81 51.61-6.63 51.82-6.41L52.38-7.04C52.15-7.30 51.85-7.53 51.49-7.72C51.13-7.92 50.71-8.02 50.23-8.02C49.73-8.02 49.26-7.92 48.83-7.73C48.41-7.55 48.04-7.28 47.72-6.92C47.41-6.57 47.17-6.14 46.99-5.64C46.82-5.14 46.73-4.57 46.73-3.94ZM56.59 0.14C57.09 0.14 57.54 0.05 57.95-0.14C58.37-0.34 58.72-0.61 59.02-0.97C59.32-1.32 59.55-1.75 59.72-2.26C59.88-2.77 59.96-3.34 59.96-3.97C59.96-4.60 59.88-5.16 59.72-5.66C59.55-6.16 59.32-6.58 59.02-6.93C58.72-7.28 58.37-7.55 57.95-7.73C57.54-7.92 57.09-8.02 56.59-8.02C56.10-8.02 55.64-7.92 55.23-7.74C54.82-7.56 54.46-7.29 54.17-6.94C53.87-6.59 53.64-6.17 53.48-5.67C53.31-5.17 53.23-4.60 53.23-3.97C53.23-3.34 53.31-2.77 53.48-2.26C53.64-1.75 53.87-1.32 54.17-0.97C54.46-0.61 54.82-0.34 55.23-0.14C55.64 0.05 56.10 0.14 56.59 0.14ZM56.59-0.73C56.24-0.73 55.92-0.81 55.64-0.96C55.35-1.11 55.11-1.33 54.91-1.61C54.70-1.90 54.54-2.24 54.43-2.63C54.32-3.03 54.26-3.48 54.26-3.97C54.26-4.46 54.32-4.90 54.43-5.29C54.54-5.68 54.70-6.02 54.91-6.29C55.11-6.56 55.35-6.77 55.64-6.92C55.92-7.07 56.24-7.14 56.59-7.14C56.94-7.14 57.26-7.07 57.55-6.92C57.83-6.77 58.07-6.56 58.28-6.29C58.48-6.02 58.64-5.68 58.75-5.29C58.86-4.90 58.92-4.46 58.92-3.97C58.92-3.48 58.86-3.03 58.75-2.63C58.64-2.24 58.48-1.90 58.28-1.61C58.07-1.33 57.83-1.11 57.55-0.96C57.26-0.81 56.94-0.73 56.59-0.73ZM61.66-7.87L61.66 0L62.58 0L62.58-4.33C62.58-4.68 62.56-5.07 62.53-5.50C62.50-5.92 62.47-6.31 62.45-6.66L62.50-6.66L63.12-4.91L64.64-0.79L65.21-0.79L66.72-4.91L67.36-6.66L67.40-6.66C67.37-6.31 67.34-5.92 67.31-5.50C67.29-5.07 67.27-4.68 67.27-4.33L67.27 0L68.22 0L68.22-7.87L67.04-7.87L65.53-3.65L64.98-2.04L64.93-2.04L64.36-3.65L62.83-7.87ZM70.38-7.87L70.38 0L71.30 0L71.30-4.33C71.30-4.68 71.29-5.07 71.26-5.50C71.22-5.92 71.20-6.31 71.17-6.66L71.22-6.66L71.84-4.91L73.37-0.79L73.93-0.79L75.44-4.91L76.08-6.66L76.13-6.66C76.10-6.31 76.07-5.92 76.04-5.50C76.01-5.07 76.00-4.68 76.00-4.33L76.00 0L76.94 0L76.94-7.87L75.77-7.87L74.26-3.65L73.70-2.04L73.66-2.04L73.08-3.65L71.56-7.87ZM79.10-7.87L79.10 0L83.76 0L83.76-0.85L80.10-0.85L80.10-3.71L83.09-3.71L83.09-4.56L80.10-4.56L80.10-7.03L83.64-7.03L83.64-7.87ZM86.42-4.14L86.42-7.07L87.74-7.07C88.36-7.07 88.83-6.96 89.16-6.76C89.49-6.55 89.65-6.18 89.65-5.66C89.65-5.15 89.49-4.77 89.16-4.52C88.83-4.27 88.36-4.14 87.74-4.14ZM89.75 0L90.88 0L88.88-3.43C89.42-3.57 89.85-3.82 90.17-4.19C90.49-4.56 90.65-5.05 90.65-5.66C90.65-6.07 90.58-6.42 90.44-6.70C90.31-6.98 90.12-7.20 89.87-7.38C89.63-7.56 89.34-7.68 89.00-7.76C88.66-7.83 88.29-7.87 87.89-7.87L85.43-7.87L85.43 0L86.42 0L86.42-3.32L87.85-3.32ZM91.94-3.94C91.94-3.30 92.03-2.72 92.20-2.21C92.37-1.71 92.61-1.28 92.92-0.93C93.23-0.58 93.59-0.32 94.01-0.13C94.43 0.05 94.89 0.14 95.39 0.14C95.89 0.14 96.34 0.04 96.73-0.16C97.12-0.36 97.48-0.64 97.79-1.00L97.22-1.61C96.97-1.33 96.70-1.11 96.41-0.96C96.13-0.81 95.80-0.73 95.41-0.73C95.04-0.73 94.70-0.81 94.40-0.96C94.10-1.11 93.84-1.33 93.64-1.61C93.43-1.89 93.27-2.23 93.15-2.62C93.03-3.02 92.98-3.46 92.98-3.96C92.98-4.45 93.04-4.89 93.16-5.28C93.28-5.67 93.44-6.01 93.66-6.28C93.88-6.56 94.14-6.77 94.44-6.92C94.74-7.07 95.08-7.14 95.46-7.14C95.80-7.14 96.09-7.07 96.34-6.94C96.59-6.81 96.82-6.63 97.03-6.41L97.60-7.04C97.36-7.30 97.07-7.53 96.71-7.72C96.35-7.92 95.93-8.02 95.45-8.02C94.94-8.02 94.48-7.92 94.05-7.73C93.62-7.55 93.25-7.28 92.94-6.92C92.63-6.57 92.38-6.14 92.21-5.64C92.03-5.14 91.94-4.57 91.94-3.94ZM99.25-7.87L99.25 0L103.91 0L103.91-0.85L100.25-0.85L100.25-3.71L103.24-3.71L103.24-4.56L100.25-4.56L100.25-7.03L103.79-7.03L103.79-7.87ZM108.00-7.87L108.00 0L108.92 0L108.92-4.33C108.92-4.68 108.91-5.07 108.88-5.50C108.84-5.92 108.82-6.31 108.79-6.66L108.84-6.66L109.46-4.91L110.99-0.79L111.55-0.79L113.06-4.91L113.70-6.66L113.75-6.66C113.72-6.31 113.69-5.92 113.66-5.50C113.63-5.07 113.62-4.68 113.62-4.33L113.62 0L114.56 0L114.56-7.87L113.39-7.87L111.88-3.65L111.32-2.04L111.28-2.04L110.70-3.65L109.18-7.87ZM120.07-3.20L117.71-3.20L118.08-4.40C118.22-4.84 118.36-5.28 118.49-5.72C118.62-6.15 118.74-6.60 118.86-7.06L118.91-7.06C119.04-6.60 119.16-6.15 119.29-5.72C119.42-5.28 119.56-4.84 119.70-4.40ZM120.32-2.40L121.07 0L122.14 0L119.47-7.87L118.34-7.87L115.68 0L116.70 0L117.46-2.40ZM124.25-4.14L124.25-7.07L125.57-7.07C126.18-7.07 126.66-6.96 126.98-6.76C127.31-6.55 127.48-6.18 127.48-5.66C127.48-5.15 127.31-4.77 126.98-4.52C126.66-4.27 126.18-4.14 125.57-4.14ZM127.57 0L128.70 0L126.71-3.43C127.24-3.57 127.67-3.82 127.99-4.19C128.31-4.56 128.47-5.05 128.47-5.66C128.47-6.07 128.40-6.42 128.27-6.70C128.13-6.98 127.94-7.20 127.70-7.38C127.45-7.56 127.16-7.68 126.82-7.76C126.48-7.83 126.11-7.87 125.71-7.87L123.25-7.87L123.25 0L124.25 0L124.25-3.32L125.68-3.32ZM130.22-7.87L130.22 0L131.22 0L131.22-2.50L132.58-4.09L134.93 0L136.04 0L133.20-4.87L135.66-7.87L134.53-7.87L131.26-3.92L131.22-3.92L131.22-7.87ZM137.17-7.87L137.17 0L141.83 0L141.83-0.85L138.17-0.85L138.17-3.71L141.16-3.71L141.16-4.56L138.17-4.56L138.17-7.03L141.71-7.03L141.71-7.87ZM145.13-7.03L145.13 0L146.14 0L146.14-7.03L148.51-7.03L148.51-7.87L142.75-7.87L142.75-7.03ZM149.93-7.87L149.93 0L150.92 0L150.92-7.87ZM153.08-7.87L153.08 0L154.03 0L154.03-4.12C154.03-4.53 154.02-4.95 153.99-5.36C153.96-5.77 153.93-6.18 153.90-6.58L153.95-6.58L154.80-4.96L157.66 0L158.69 0L158.69-7.87L157.74-7.87L157.74-3.80C157.74-3.39 157.75-2.97 157.78-2.54C157.81-2.11 157.84-1.70 157.86-1.30L157.81-1.30L156.96-2.93L154.12-7.87ZM160.39-3.94C160.39-3.30 160.48-2.72 160.66-2.21C160.83-1.71 161.08-1.28 161.39-0.93C161.70-0.58 162.07-0.32 162.50-0.13C162.94 0.05 163.41 0.14 163.93 0.14C164.46 0.14 164.93 0.06 165.35-0.11C165.77-0.29 166.11-0.50 166.37-0.77L166.37-4.08L163.79-4.08L163.79-3.25L165.46-3.25L165.46-1.20C165.30-1.06 165.09-0.94 164.84-0.86C164.59-0.77 164.32-0.73 164.04-0.73C163.62-0.73 163.24-0.81 162.92-0.96C162.59-1.11 162.32-1.33 162.10-1.61C161.88-1.89 161.71-2.23 161.60-2.62C161.48-3.02 161.42-3.46 161.42-3.96C161.42-4.45 161.49-4.89 161.61-5.28C161.73-5.67 161.91-6.01 162.13-6.28C162.36-6.56 162.63-6.77 162.95-6.92C163.27-7.07 163.63-7.14 164.03-7.14C164.43-7.14 164.76-7.07 165.02-6.93C165.28-6.79 165.51-6.62 165.71-6.41L166.27-7.04C166.04-7.28 165.74-7.51 165.38-7.71C165.01-7.91 164.56-8.02 164.02-8.02C163.49-8.02 163.00-7.92 162.56-7.73C162.12-7.55 161.74-7.28 161.42-6.92C161.09-6.57 160.84-6.14 160.66-5.64C160.48-5.14 160.39-4.57 160.39-3.94Z" transform="translate(-0.504, 8.016)"></path></g></g></g></g></mask><defs v-gra="od"></defs></g></svg>